<svg xmlns="http://www.w3.org/2000/svg" version="1.1" xmlns:xlink="http://www.w3.org/1999/xlink" xmlns:svgjs="http://svgjs.dev/svgjs" width="1000" height="914" viewBox="0 0 1000 914"><g transform="matrix(1,0,0,1,0.7034343213928196,0.370040485829918)"><svg viewBox="0 0 270 247" data-background-color="#ffffff" preserveAspectRatio="xMidYMid meet" height="914" width="1000" xmlns="http://www.w3.org/2000/svg" xmlns:xlink="http://www.w3.org/1999/xlink"><g id="tight-bounds" transform="matrix(1,0,0,1,-0.18992726677606697,-0.09999999999999432)"><svg viewBox="0 0 270.37983906207455 247.2" height="247.2" width="270.37983906207455"><g><svg viewBox="0 0 395.52 361.6118137327284" height="247.2" width="270.37983906207455"><g transform="matrix(1,0,0,1,0,255.65446503542356)"><svg viewBox="0 0 395.52 105.95734869730487" height="105.95734869730487" width="395.52"><g><svg viewBox="0 0 395.52 105.95734869730487" height="105.95734869730487" width="395.52"><g><svg viewBox="0 0 395.52 57.14833086524224" height="57.14833086524224" width="395.52"><g transform="matrix(1,0,0,1,0,0)"><svg width="395.52" viewBox="4.849999904632568 -33.54999923706055 236.32998657226562 34.14999771118164" height="57.14833086524224" data-palette-color="#ba3b0a"><path d="M7.15 0L4.85 0 4.85-32.95 14.3-32.95Q16.75-32.95 18.75-32.48 20.75-32 22.15-30.95 23.55-29.9 24.33-28.25 25.1-26.6 25.1-24.25L25.1-24.25Q25.1-20.3 22.83-18.05 20.55-15.8 16.65-15.3L16.65-15.3 25.75 0 23.1 0 14.15-15.15 7.15-15.15 7.15 0ZM7.15-31L7.15-17.05 13.7-17.05Q18.1-17.05 20.43-18.82 22.75-20.6 22.75-24.25L22.75-24.25Q22.75-27.95 20.4-29.48 18.05-31 13.7-31L13.7-31 7.15-31ZM34.35 0L32.05 0 32.05-32.95 34.35-32.95 34.35 0ZM55.5 0.6L55.5 0.6Q52.55 0.6 50.05-0.63 47.55-1.85 45.75-4.1 43.95-6.35 42.95-9.53 41.95-12.7 41.95-16.6L41.95-16.6Q41.95-20.5 42.95-23.63 43.95-26.75 45.75-28.98 47.55-31.2 50.05-32.38 52.55-33.55 55.5-33.55L55.5-33.55Q58.5-33.55 61-32.38 63.5-31.2 65.3-28.98 67.1-26.75 68.1-23.63 69.1-20.5 69.1-16.6L69.1-16.6Q69.1-12.7 68.1-9.53 67.1-6.35 65.3-4.1 63.5-1.85 61-0.63 58.5 0.6 55.5 0.6ZM55.5-1.5L55.5-1.5Q58-1.5 60.05-2.58 62.1-3.65 63.57-5.63 65.05-7.6 65.85-10.38 66.65-13.15 66.65-16.6L66.65-16.6Q66.65-20 65.85-22.75 65.05-25.5 63.57-27.43 62.1-29.35 60.05-30.4 58-31.45 55.5-31.45L55.5-31.45Q53-31.45 50.92-30.4 48.85-29.35 47.4-27.43 45.95-25.5 45.15-22.75 44.35-20 44.35-16.6L44.35-16.6Q44.35-13.15 45.15-10.38 45.95-7.6 47.4-5.63 48.85-3.65 50.92-2.58 53-1.5 55.5-1.5ZM84.99 0L82.69 0 82.69-30.95 72.19-30.95 72.19-32.95 95.49-32.95 95.49-30.95 84.99-30.95 84.99 0ZM120.34 0L101.79 0 101.79-32.95 119.84-32.95 119.84-30.95 104.09-30.95 104.09-18.5 117.29-18.5 117.29-16.5 104.09-16.5 104.09-2 120.34-2 120.34 0ZM139.24 0.6L139.24 0.6Q136.19 0.6 133.64-0.6 131.09-1.8 129.26-4.03 127.44-6.25 126.44-9.43 125.44-12.6 125.44-16.55L125.44-16.55Q125.44-20.45 126.46-23.6 127.49-26.75 129.34-28.98 131.19-31.2 133.76-32.38 136.34-33.55 139.49-33.55L139.49-33.55Q142.39-33.55 144.59-32.35 146.79-31.15 148.09-29.6L148.09-29.6 146.74-28.05Q145.39-29.6 143.59-30.53 141.79-31.45 139.54-31.45L139.54-31.45Q136.84-31.45 134.66-30.4 132.49-29.35 130.96-27.43 129.44-25.5 128.64-22.75 127.84-20 127.84-16.55L127.84-16.55Q127.84-13.1 128.64-10.33 129.44-7.55 130.94-5.6 132.44-3.65 134.56-2.58 136.69-1.5 139.34-1.5L139.34-1.5Q141.89-1.5 143.89-2.53 145.89-3.55 147.69-5.55L147.69-5.55 149.04-4.1Q147.14-1.9 144.79-0.65 142.44 0.6 139.24 0.6ZM158.04 0L155.74 0 155.74-32.95 158.04-32.95 158.04-18.5 175.69-18.5 175.69-32.95 177.99-32.95 177.99 0 175.69 0 175.69-16.5 158.04-16.5 158.04 0ZM198.63 0.6L198.63 0.6Q196.53 0.6 194.53-0.03 192.53-0.65 190.98-2.18 189.43-3.7 188.51-6.25 187.58-8.8 187.58-12.65L187.58-12.65 187.58-32.95 189.88-32.95 189.88-12.9Q189.88-9.6 190.61-7.43 191.33-5.25 192.53-3.93 193.73-2.6 195.31-2.05 196.88-1.5 198.63-1.5L198.63-1.5Q200.43-1.5 202.06-2.05 203.68-2.6 204.91-3.93 206.13-5.25 206.88-7.43 207.63-9.6 207.63-12.9L207.63-12.9 207.63-32.95 209.78-32.95 209.78-12.65Q209.78-8.8 208.83-6.25 207.88-3.7 206.33-2.18 204.78-0.65 202.78-0.03 200.78 0.6 198.63 0.6ZM228.93 0L219.38 0 219.38-32.95 228.28-32.95Q233.28-32.95 236.23-31.03 239.18-29.1 239.18-24.95L239.18-24.95Q239.18-22.35 237.88-20.43 236.58-18.5 234.08-17.75L234.08-17.75 234.08-17.55Q237.28-17 239.23-15.03 241.18-13.05 241.18-9.6L241.18-9.6Q241.18-7.2 240.31-5.4 239.43-3.6 237.83-2.4 236.23-1.2 233.98-0.6 231.73 0 228.93 0L228.93 0ZM221.68-31.05L221.68-18.45 227.38-18.45Q232.43-18.45 234.66-20.13 236.88-21.8 236.88-24.7L236.88-24.7Q236.88-28.2 234.53-29.63 232.18-31.05 227.63-31.05L227.63-31.05 221.68-31.05ZM221.68-16.55L221.68-1.9 228.33-1.9Q233.28-1.9 236.11-3.75 238.93-5.6 238.93-9.55L238.93-9.55Q238.93-13.15 236.18-14.85 233.43-16.55 228.33-16.55L228.33-16.55 221.68-16.55Z" opacity="1" transform="matrix(1,0,0,1,0,0)" fill="#ba3b0a" class="undefined-text-0" data-fill-palette-color="primary" id="text-0"></path></svg></g></svg></g><g transform="matrix(1,0,0,1,0,70.63968022258516)"><svg viewBox="0 0 395.52 35.3176684747197" height="35.3176684747197" width="395.52"><g transform="matrix(1,0,0,1,0,0)"><svg width="395.52" viewBox="1 -37.5 559.9500122070312 50" height="35.3176684747197" data-palette-color="#ba3b0a"><path d="M18.15 0L8.1 0 8.1-2.75 11.35-2.75 11.35-32 4-32 3.45-27.4 1-27.8 1.6-35 24.4-35 25.05-27.8 22.55-27.4 21.95-32 14.5-32 14.5-2.75 18.15-2.75 18.15 0ZM62.45-11.2L62.45-11.2Q62.45-6.75 65-4.73 67.55-2.7 70.95-2.7L70.95-2.7Q73.15-2.7 75.47-3.13 77.8-3.55 78.55-3.9L78.55-3.9 79.2-1.55Q78.05-0.8 75.42-0.3 72.8 0.2 70.62 0.2 68.45 0.2 66.72-0.25 65-0.7 63.2-1.85 61.4-3 60.35-5.45 59.3-7.9 59.3-11.45L59.3-11.45Q59.3-18.05 62.7-21.55L62.7-21.55Q66.25-25.2 70.95-25.2 75.65-25.2 78.12-22.6 80.6-20 80.6-15.3L80.6-15.3Q80.6-14.3 80.45-13.15L80.45-13.15 62.6-13.15Q62.45-12.1 62.45-11.2ZM77.6-15.65L77.6-15.65Q77.6-18.75 75.75-20.43 73.9-22.1 71.45-22.1L71.45-22.1Q68.1-22.1 65.9-20.08 63.7-18.05 62.95-15.1L62.95-15.1 77.6-15.1Q77.6-15.4 77.6-15.65ZM131.85-22.3L131.85-22.3Q127.6-22.3 124.97-19.48 122.35-16.65 122.35-11.55L122.35-11.55Q122.35-2.7 130.6-2.7L130.6-2.7Q133.8-2.7 135.95-3.23 138.1-3.75 138.3-3.9L138.3-3.9 139-1.55Q137.85-0.8 135.2-0.3 132.55 0.2 130.4 0.2 128.25 0.2 126.5-0.25 124.75-0.7 122.97-1.85 121.2-3 120.15-5.48 119.1-7.95 119.1-11.5L119.1-11.5Q119.1-18.05 122.45-21.4L122.45-21.4Q126.2-25.25 131.9-25.25L131.9-25.25Q133.7-25.25 135.72-24.78 137.75-24.3 138.85-23.3L138.85-23.3 138.85-16.75 136.4-16.4 136.15-21.65Q134.1-22.3 131.85-22.3ZM203.7 0L193.6 0 193.6-2.5 196.65-2.5 196.65-17.1Q196.65-18.85 195.92-19.95 195.2-21.05 194.05-21.4L194.05-21.4Q192.15-22.05 190.95-21.95L190.95-21.95Q187.7-21.85 183.8-19.65L183.8-19.65 183.8-2.5 187.6-2.5 187.6 0 177.5 0 177.5-2.5 180.55-2.5 180.55-35 177.2-35 177.2-37.5 183.8-37.5 183.8-21.9Q190.35-26.4 195.65-24.7L195.65-24.7Q196.85-24.35 197.72-23.68 198.6-23 199.25-21.65 199.9-20.3 199.9-18.4L199.9-18.4 199.9-2.5 203.7-2.5 203.7 0ZM243.5-22.5L240.15-22.5 240.15-25 246.75-25 246.75-22.2Q250.85-25 254.6-25.15L254.6-25.15Q258.25-25.15 260.15-23.7L260.15-23.7Q261-23.05 261.67-21.68 262.35-20.3 262.35-18.4L262.35-18.4 262.35-2.5 266.2-2.5 266.2 0 256.1 0 256.1-2.5 259.1-2.5 259.1-17.15Q259.1-22 253.4-22L253.4-22Q250.3-21.9 246.75-19.95L246.75-19.95 246.75-2.5 250.5-2.5 250.5 0 240.4 0 240.4-2.5 243.5-2.5 243.5-22.5ZM314.77 0.2Q309.55 0.2 306.32-2.8 303.1-5.8 303.1-11.98 303.1-18.15 306.52-21.68 309.95-25.2 315.15-25.2 320.35-25.2 323.6-22.2 326.85-19.2 326.85-13.03 326.85-6.85 323.42-3.33 320 0.2 314.77 0.2ZM315.07-22.3Q311.35-22.3 308.85-19.6 306.35-16.9 306.35-12.28 306.35-7.65 308.72-5.18 311.1-2.7 314.85-2.7 318.6-2.7 321.1-5.38 323.6-8.05 323.6-12.68 323.6-17.3 321.2-19.8 318.8-22.3 315.07-22.3ZM367.95-35L364.6-35 364.6-37.5 371.2-37.5 371.2-2.5 374.95-2.5 374.95 0 364.85 0 364.85-2.5 367.95-2.5 367.95-35ZM422.37 0.2Q417.15 0.2 413.92-2.8 410.7-5.8 410.7-11.98 410.7-18.15 414.12-21.68 417.55-25.2 422.75-25.2 427.95-25.2 431.2-22.2 434.45-19.2 434.45-13.03 434.45-6.85 431.02-3.33 427.6 0.2 422.37 0.2ZM422.67-22.3Q418.95-22.3 416.45-19.6 413.95-16.9 413.95-12.28 413.95-7.65 416.32-5.18 418.7-2.7 422.45-2.7 426.2-2.7 428.7-5.38 431.2-8.05 431.2-12.68 431.2-17.3 428.8-19.8 426.4-22.3 422.67-22.3ZM471 5.2L471 5.2Q471 0.7 476.35-2.7L476.35-2.7Q474.25-4.2 474.25-6.28 474.25-8.35 476.05-9.65L476.05-9.65Q472.35-11.45 472.35-16.95L472.35-16.95Q472.35-20.8 475.25-23 478.15-25.2 482.65-25.2L482.65-25.2Q484.1-25.2 485.6-24.95L485.6-24.95 495-25.2 494.9-23.3 489.45-23.3Q492.2-21.25 492.2-17.15 492.2-13.05 489.45-10.8 486.7-8.55 482.35-8.55L482.35-8.55Q479.55-8.55 477.7-9.05L477.7-9.05Q476.75-8.15 476.75-6.75 476.75-5.35 478.47-4.58 480.2-3.8 482.92-3.43 485.65-3.05 486.9-2.78 488.15-2.5 489.8-1.9 491.45-1.3 492.45-0.5L492.45-0.5Q494.8 1.45 494.8 4.7L494.8 4.7Q494.8 6.95 493.75 8.55 492.7 10.15 490.85 11L490.85 11Q487.45 12.5 482.75 12.5L482.75 12.5Q476.5 12.5 473.75 10.35 471 8.2 471 5.2ZM474.25 4.85L474.25 4.85Q474.25 6.9 476.25 8.25 478.25 9.6 482.35 9.6L482.35 9.6Q491.55 9.6 491.55 4.7L491.55 4.7Q491.55 2.25 489.35 1.2L489.35 1.2Q487.45 0.25 485.15-0.2L485.15-0.2Q480.25-0.9 478.1-1.75L478.1-1.75Q474.25 1.4 474.25 4.85ZM482.5-22.55Q479.4-22.55 477.5-21.13 475.6-19.7 475.6-16.88 475.6-14.05 477.07-12.63 478.55-11.2 481.8-11.2 485.05-11.2 486.92-12.83 488.8-14.45 488.8-17.25L488.8-17.25Q488.8-22.55 482.5-22.55L482.5-22.55ZM554.5-22.5L551.75-22.5 551.75-25 560.95-25 560.95-22.5 557.95-22.5 548 0 546.35 9.95 550.55 9.95 550.55 12.45 540 12.45 540 9.95 543.1 9.95 544.65 0 543.8 0 535.7-22.5 532.3-22.5 532.3-25 542.85-25 542.85-22.5 539.4-22.5 546-2.35 554.5-22.5Z" opacity="1" transform="matrix(1,0,0,1,0,0)" fill="#ba3b0a" class="undefined-text-1" data-fill-palette-color="secondary" id="text-1"></path></svg></g></svg></g></svg></g></svg></g><g transform="matrix(1,0,0,1,83.42411683963114,0)"><svg viewBox="0 0 228.6717663207377 228.6717663207377" height="228.6717663207377" width="228.6717663207377"><g><svg></svg></g><g id="icon-0"><svg viewBox="0 0 228.6717663207377 228.6717663207377" height="228.6717663207377" width="228.6717663207377"><g><path d="M0 114.336c0-63.146 51.19-114.336 114.336-114.336 63.146 0 114.336 51.19 114.336 114.336 0 63.146-51.19 114.336-114.336 114.336-63.146 0-114.336-51.19-114.336-114.336zM114.336 223.518c60.3 0 109.182-48.883 109.182-109.182 0-60.3-48.883-109.182-109.182-109.182-60.3 0-109.182 48.883-109.182 109.182 0 60.3 48.883 109.182 109.182 109.182z" data-fill-palette-color="accent" fill="#ba3b0a" stroke="transparent"></path><ellipse rx="113.19252432876516" ry="113.19252432876516" cx="114.33588316036885" cy="114.33588316036885" fill="#ba3b0a" stroke="transparent" stroke-width="0" fill-opacity="1" data-fill-palette-color="accent"></ellipse></g><g transform="matrix(1,0,0,1,46.93985946402594,73.56320330472519)"><svg viewBox="0 0 134.79204739268582 81.5453597112873" height="81.5453597112873" width="134.79204739268582"><g><svg xmlns="http://www.w3.org/2000/svg" xmlns:xlink="http://www.w3.org/1999/xlink" version="1.1" viewBox="1.718998908996582 20.00261878967285 92.56200408935547 55.99738311767578" x="0" y="0" height="81.5453597112873" width="134.79204739268582" class="icon-s-0" data-fill-palette-color="quaternary" id="s-0"><path d="M28.288 74.572c-0.512 0-1.024-0.196-1.416-0.584l-24.568-24.572c-0.78-0.776-0.78-2.052 0-2.828l24.568-24.576c0.78-0.78 2.052-0.78 2.828 0 0.78 0.78 0.78 2.048 0 2.828l-23.156 23.156 23.156 23.156c0.78 0.78 0.78 2.048 0 2.828-0.388 0.396-0.9 0.592-1.412 0.592z" fill="#ffffff" data-fill-palette-color="quaternary"></path><path d="M67.716 74.572c-0.512 0-1.024-0.196-1.416-0.584-0.78-0.78-0.78-2.048 0-2.828l23.156-23.16-23.156-23.156c-0.78-0.78-0.78-2.048 0-2.828s2.048-0.78 2.828 0l24.568 24.576c0.78 0.776 0.78 2.052 0 2.828l-24.568 24.572c-0.388 0.384-0.9 0.58-1.412 0.58z" fill="#ffffff" data-fill-palette-color="quaternary"></path><path d="M38.288 76c-0.244 0-0.484-0.048-0.724-0.132-1.028-0.4-1.544-1.556-1.144-2.584l20-52c0.396-1.028 1.556-1.544 2.584-1.148 1.028 0.4 1.544 1.556 1.148 2.584l-20 52c-0.304 0.788-1.06 1.28-1.864 1.28z" fill="#ffffff" data-fill-palette-color="quaternary"></path></svg></g></svg></g></svg></g></svg></g><g></g></svg></g><defs></defs></svg><rect width="270.37983906207455" height="247.2" fill="none" stroke="none" visibility="hidden"></rect></g></svg></g></svg>